<mxfile host="app.diagrams.net" modified="2024-03-19T07:19:22.245Z" agent="Mozilla/5.0 (Macintosh; Intel Mac OS X 10_15_7) AppleWebKit/605.1.15 (KHTML, like Gecko) Version/16.6 Safari/605.1.15" etag="Xj1UZkazc3cRK0pFuWBw" version="24.0.7" type="device">
  <diagram name="페이지-1" id="FLjpa34f3PNXlgoS4qd9">
    <mxGraphModel dx="1359" dy="802" grid="1" gridSize="10" guides="1" tooltips="1" connect="1" arrows="1" fold="1" page="1" pageScale="1" pageWidth="827" pageHeight="1169" math="0" shadow="0">
      <root>
        <mxCell id="0" />
        <mxCell id="1" parent="0" />
        <mxCell id="yL9FPbet30XF5RbIoYs2-21" style="edgeStyle=orthogonalEdgeStyle;rounded=0;orthogonalLoop=1;jettySize=auto;html=1;exitX=1;exitY=0.5;exitDx=0;exitDy=0;startArrow=none;startFill=0;" edge="1" parent="1" source="yL9FPbet30XF5RbIoYs2-1">
          <mxGeometry relative="1" as="geometry">
            <mxPoint x="500" y="380" as="targetPoint" />
          </mxGeometry>
        </mxCell>
        <mxCell id="yL9FPbet30XF5RbIoYs2-22" style="edgeStyle=orthogonalEdgeStyle;rounded=0;orthogonalLoop=1;jettySize=auto;html=1;exitX=0.5;exitY=1;exitDx=0;exitDy=0;entryX=0.5;entryY=0;entryDx=0;entryDy=0;startArrow=classic;startFill=1;" edge="1" parent="1" source="yL9FPbet30XF5RbIoYs2-1" target="yL9FPbet30XF5RbIoYs2-2">
          <mxGeometry relative="1" as="geometry" />
        </mxCell>
        <mxCell id="yL9FPbet30XF5RbIoYs2-23" style="edgeStyle=orthogonalEdgeStyle;rounded=0;orthogonalLoop=1;jettySize=auto;html=1;exitX=0.5;exitY=0;exitDx=0;exitDy=0;entryX=0.5;entryY=1;entryDx=0;entryDy=0;startArrow=classic;startFill=1;" edge="1" parent="1" source="yL9FPbet30XF5RbIoYs2-1" target="yL9FPbet30XF5RbIoYs2-3">
          <mxGeometry relative="1" as="geometry" />
        </mxCell>
        <mxCell id="yL9FPbet30XF5RbIoYs2-1" value="경보 관리자" style="rounded=0;whiteSpace=wrap;html=1;" vertex="1" parent="1">
          <mxGeometry x="360" y="360" width="100" height="40" as="geometry" />
        </mxCell>
        <mxCell id="yL9FPbet30XF5RbIoYs2-2" value="질의 서비스" style="rounded=0;whiteSpace=wrap;html=1;" vertex="1" parent="1">
          <mxGeometry x="360" y="440" width="100" height="40" as="geometry" />
        </mxCell>
        <mxCell id="yL9FPbet30XF5RbIoYs2-3" value="캐시&lt;span style=&quot;caret-color: rgba(0, 0, 0, 0); color: rgba(0, 0, 0, 0); font-family: monospace; font-size: 0px; text-align: start; white-space: nowrap;&quot;&gt;%3CmxGraphModel%3E%3Croot%3E%3CmxCell%20id%3D%220%22%2F%3E%3CmxCell%20id%3D%221%22%20parent%3D%220%22%2F%3E%3CmxCell%20id%3D%222%22%20value%3D%22%EA%B2%BD%EB%B3%B4%20%EA%B4%80%EB%A6%AC%EC%9E%90%22%20style%3D%22rounded%3D0%3BwhiteSpace%3Dwrap%3Bhtml%3D1%3B%22%20vertex%3D%221%22%20parent%3D%221%22%3E%3CmxGeometry%20x%3D%22360%22%20y%3D%22360%22%20width%3D%22100%22%20height%3D%2240%22%20as%3D%22geometry%22%2F%3E%3C%2FmxCell%3E%3C%2Froot%3E%3C%2FmxGraphModel%3E&lt;/span&gt;" style="rounded=0;whiteSpace=wrap;html=1;" vertex="1" parent="1">
          <mxGeometry x="360" y="280" width="100" height="40" as="geometry" />
        </mxCell>
        <mxCell id="yL9FPbet30XF5RbIoYs2-4" value="경보 저장소" style="shape=cylinder3;whiteSpace=wrap;html=1;boundedLbl=1;backgroundOutline=1;size=15;" vertex="1" parent="1">
          <mxGeometry x="220" y="347.5" width="100" height="65" as="geometry" />
        </mxCell>
        <mxCell id="yL9FPbet30XF5RbIoYs2-26" style="edgeStyle=orthogonalEdgeStyle;rounded=0;orthogonalLoop=1;jettySize=auto;html=1;exitX=0;exitY=0;exitDx=100;exitDy=50;exitPerimeter=0;entryX=0;entryY=0.5;entryDx=0;entryDy=0;" edge="1" parent="1" source="yL9FPbet30XF5RbIoYs2-5" target="yL9FPbet30XF5RbIoYs2-3">
          <mxGeometry relative="1" as="geometry" />
        </mxCell>
        <mxCell id="yL9FPbet30XF5RbIoYs2-5" value="&lt;div&gt;&lt;br&gt;&lt;/div&gt;&lt;div&gt;&lt;br&gt;&lt;/div&gt;규칙 설정 파일" style="shape=note;whiteSpace=wrap;html=1;backgroundOutline=1;darkOpacity=0.05;" vertex="1" parent="1">
          <mxGeometry x="220" y="250" width="100" height="70" as="geometry" />
        </mxCell>
        <mxCell id="yL9FPbet30XF5RbIoYs2-6" value="" style="shape=cylinder3;whiteSpace=wrap;html=1;boundedLbl=1;backgroundOutline=1;size=15;rotation=90;" vertex="1" parent="1">
          <mxGeometry x="520" y="330" width="60" height="100" as="geometry" />
        </mxCell>
        <mxCell id="yL9FPbet30XF5RbIoYs2-20" style="edgeStyle=orthogonalEdgeStyle;rounded=0;orthogonalLoop=1;jettySize=auto;html=1;exitX=1;exitY=0.5;exitDx=0;exitDy=0;entryX=0;entryY=0.5;entryDx=0;entryDy=0;" edge="1" parent="1" source="yL9FPbet30XF5RbIoYs2-7" target="yL9FPbet30XF5RbIoYs2-9">
          <mxGeometry relative="1" as="geometry" />
        </mxCell>
        <mxCell id="yL9FPbet30XF5RbIoYs2-7" value="카프카" style="rounded=0;whiteSpace=wrap;html=1;strokeColor=none;fillColor=none;" vertex="1" parent="1">
          <mxGeometry x="480" y="350" width="120" height="60" as="geometry" />
        </mxCell>
        <mxCell id="yL9FPbet30XF5RbIoYs2-9" value="&lt;div&gt;경보 소비자&lt;/div&gt;" style="rounded=0;whiteSpace=wrap;html=1;" vertex="1" parent="1">
          <mxGeometry x="640" y="360" width="100" height="40" as="geometry" />
        </mxCell>
        <mxCell id="yL9FPbet30XF5RbIoYs2-10" value="&lt;div&gt;이메일&lt;/div&gt;" style="rounded=0;whiteSpace=wrap;html=1;" vertex="1" parent="1">
          <mxGeometry x="800" y="267.5" width="100" height="40" as="geometry" />
        </mxCell>
        <mxCell id="yL9FPbet30XF5RbIoYs2-11" value="&lt;div&gt;SMS&lt;/div&gt;" style="rounded=0;whiteSpace=wrap;html=1;" vertex="1" parent="1">
          <mxGeometry x="800" y="329.5" width="100" height="40" as="geometry" />
        </mxCell>
        <mxCell id="yL9FPbet30XF5RbIoYs2-12" value="&lt;div&gt;PageDuty&lt;/div&gt;" style="rounded=0;whiteSpace=wrap;html=1;" vertex="1" parent="1">
          <mxGeometry x="800" y="390.5" width="100" height="40" as="geometry" />
        </mxCell>
        <mxCell id="yL9FPbet30XF5RbIoYs2-13" value="&lt;div&gt;WebHook&lt;/div&gt;" style="rounded=0;whiteSpace=wrap;html=1;" vertex="1" parent="1">
          <mxGeometry x="800" y="452.5" width="100" height="40" as="geometry" />
        </mxCell>
        <mxCell id="yL9FPbet30XF5RbIoYs2-14" style="edgeStyle=orthogonalEdgeStyle;rounded=0;orthogonalLoop=1;jettySize=auto;html=1;entryX=0;entryY=0.5;entryDx=0;entryDy=0;curved=1;" edge="1" parent="1" target="yL9FPbet30XF5RbIoYs2-10">
          <mxGeometry relative="1" as="geometry">
            <mxPoint x="740" y="360" as="sourcePoint" />
            <mxPoint x="780" y="350" as="targetPoint" />
            <Array as="points">
              <mxPoint x="740" y="288" />
            </Array>
          </mxGeometry>
        </mxCell>
        <mxCell id="yL9FPbet30XF5RbIoYs2-15" style="edgeStyle=orthogonalEdgeStyle;rounded=0;orthogonalLoop=1;jettySize=auto;html=1;exitX=1;exitY=1;exitDx=0;exitDy=0;curved=1;" edge="1" parent="1" source="yL9FPbet30XF5RbIoYs2-9">
          <mxGeometry relative="1" as="geometry">
            <mxPoint x="740" y="413" as="sourcePoint" />
            <mxPoint x="800" y="473" as="targetPoint" />
            <Array as="points">
              <mxPoint x="740" y="473" />
            </Array>
          </mxGeometry>
        </mxCell>
        <mxCell id="yL9FPbet30XF5RbIoYs2-16" style="edgeStyle=orthogonalEdgeStyle;rounded=0;orthogonalLoop=1;jettySize=auto;html=1;exitX=1;exitY=0;exitDx=0;exitDy=52.5;entryX=0;entryY=0.5;entryDx=0;entryDy=0;exitPerimeter=0;curved=1;" edge="1" parent="1" target="yL9FPbet30XF5RbIoYs2-11">
          <mxGeometry relative="1" as="geometry">
            <mxPoint x="740" y="373" as="sourcePoint" />
            <mxPoint x="780" y="370" as="targetPoint" />
            <Array as="points">
              <mxPoint x="740" y="350" />
            </Array>
          </mxGeometry>
        </mxCell>
        <mxCell id="yL9FPbet30XF5RbIoYs2-17" style="edgeStyle=orthogonalEdgeStyle;rounded=0;orthogonalLoop=1;jettySize=auto;html=1;exitX=1;exitY=0;exitDx=0;exitDy=52.5;entryX=0;entryY=0.5;entryDx=0;entryDy=0;exitPerimeter=0;curved=1;" edge="1" parent="1" target="yL9FPbet30XF5RbIoYs2-12">
          <mxGeometry relative="1" as="geometry">
            <mxPoint x="740" y="393" as="sourcePoint" />
            <mxPoint x="780" y="390" as="targetPoint" />
            <Array as="points">
              <mxPoint x="740" y="411" />
            </Array>
          </mxGeometry>
        </mxCell>
        <mxCell id="yL9FPbet30XF5RbIoYs2-24" style="edgeStyle=orthogonalEdgeStyle;rounded=0;orthogonalLoop=1;jettySize=auto;html=1;exitX=0;exitY=0.5;exitDx=0;exitDy=0;entryX=1;entryY=0.5;entryDx=0;entryDy=0;entryPerimeter=0;startArrow=classic;startFill=1;" edge="1" parent="1" source="yL9FPbet30XF5RbIoYs2-1" target="yL9FPbet30XF5RbIoYs2-4">
          <mxGeometry relative="1" as="geometry" />
        </mxCell>
      </root>
    </mxGraphModel>
  </diagram>
</mxfile>
